<svg xmlns="http://www.w3.org/2000/svg" fill="none" viewBox="0 0 112 67">
  <path fill="#FFF" d="M31.832 24.441c0 1.362.148 2.467.405 3.277.295.81.664 1.693 1.18 2.65a1.6 1.6 0 01.257.847c0 .368-.22.736-.7 1.104l-2.32 1.546c-.332.221-.664.332-.959.332-.368 0-.736-.184-1.105-.516a11.391 11.391 0 01-1.326-1.73 28.504 28.504 0 01-1.142-2.172c-2.874 3.387-6.485 5.08-10.832 5.08-3.095 0-5.563-.883-7.368-2.65-1.806-1.767-2.727-4.123-2.727-7.068 0-3.13 1.106-5.67 3.353-7.584 2.247-1.914 5.232-2.871 9.026-2.871 1.253 0 2.542.11 3.905.294 1.364.184 2.764.479 4.237.81v-2.687c0-2.798-.59-4.749-1.731-5.89-1.18-1.141-3.169-1.694-6.005-1.694-1.29 0-2.616.148-3.98.479-1.363.331-2.689.736-3.978 1.252-.59.257-1.032.405-1.29.478-.258.074-.442.11-.59.11-.515 0-.773-.368-.773-1.14V4.893c0-.59.074-1.031.258-1.289s.516-.515 1.031-.773c1.29-.663 2.837-1.215 4.643-1.657 1.805-.478 3.72-.699 5.747-.699 4.384 0 7.59.994 9.653 2.982 2.026 1.988 3.058 5.006 3.058 9.056V24.44h.073zm-14.958 5.596c1.216 0 2.469-.22 3.795-.663 1.326-.441 2.505-1.251 3.5-2.356.59-.7 1.032-1.472 1.253-2.356.22-.883.368-1.95.368-3.203v-1.546a30.804 30.804 0 00-3.39-.625 27.794 27.794 0 00-3.463-.221c-2.468 0-4.273.478-5.49 1.472-1.215.994-1.804 2.393-1.804 4.234 0 1.73.442 3.018 1.363 3.902.884.92 2.174 1.362 3.868 1.362zm29.585 3.976c-.664 0-1.106-.11-1.4-.368-.295-.221-.553-.737-.774-1.436L35.627 3.752c-.221-.736-.332-1.214-.332-1.472 0-.59.295-.92.884-.92h3.611c.7 0 1.179.11 1.437.368.295.22.516.736.737 1.435l6.19 24.37L53.9 3.164c.184-.736.405-1.214.7-1.435.294-.221.81-.369 1.473-.369h2.948c.7 0 1.179.11 1.473.369.295.22.553.736.7 1.435l5.821 24.665L73.39 3.163c.221-.736.479-1.214.737-1.435.295-.221.774-.369 1.437-.369h3.426c.59 0 .921.295.921.92 0 .185-.037.369-.074.59-.036.22-.11.515-.258.92l-8.878 28.457c-.221.736-.48 1.215-.774 1.435-.295.221-.774.369-1.4.369h-3.168c-.7 0-1.18-.11-1.474-.368-.295-.258-.553-.737-.7-1.473l-5.71-23.745L51.8 32.172c-.185.736-.406 1.215-.7 1.473-.295.257-.81.368-1.474.368h-3.169zm47.342.994c-1.916 0-3.832-.221-5.674-.663-1.842-.442-3.28-.92-4.237-1.472-.59-.332-.995-.7-1.142-1.031a2.598 2.598 0 01-.221-1.031v-1.877c0-.773.295-1.142.847-1.142.221 0 .442.037.663.11.221.074.553.222.921.369a20.05 20.05 0 004.053 1.288c1.474.295 2.91.442 4.384.442 2.321 0 4.127-.405 5.38-1.215 1.252-.81 1.915-1.988 1.915-3.497 0-1.03-.332-1.877-.995-2.577s-1.915-1.325-3.72-1.914l-5.343-1.657c-2.69-.846-4.679-2.098-5.895-3.755-1.215-1.62-1.842-3.423-1.842-5.338 0-1.546.332-2.908.995-4.086a9.467 9.467 0 012.653-3.019c1.105-.846 2.358-1.472 3.831-1.914 1.474-.442 3.021-.626 4.642-.626.81 0 1.658.037 2.469.148.847.11 1.62.257 2.394.405a28.83 28.83 0 012.101.589c.663.22 1.178.441 1.547.662.516.295.884.59 1.105.92.221.295.332.7.332 1.215v1.73c0 .774-.295 1.179-.848 1.179-.294 0-.773-.148-1.4-.442-2.1-.957-4.457-1.436-7.073-1.436-2.1 0-3.758.331-4.9 1.03-1.142.7-1.732 1.768-1.732 3.277 0 1.031.368 1.915 1.105 2.614.737.7 2.1 1.399 4.053 2.025l5.232 1.656c2.652.847 4.568 2.025 5.71 3.534 1.142 1.51 1.695 3.24 1.695 5.154 0 1.583-.332 3.019-.958 4.27-.663 1.252-1.547 2.357-2.69 3.24-1.142.92-2.505 1.583-4.089 2.062-1.658.515-3.39.773-5.268.773z"/>
  <path fill="#FFF" fill-rule="evenodd" d="M100.764 52.896C88.643 61.84 71.032 66.59 55.89 66.59c-21.22 0-40.342-7.841-54.784-20.873-1.142-1.03-.11-2.43 1.253-1.62 15.62 9.056 34.89 14.542 54.82 14.542 13.448 0 28.222-2.798 41.817-8.541 2.026-.92 3.757 1.325 1.768 2.798z" clip-rule="evenodd"/>
  <path fill="#FFF" fill-rule="evenodd" d="M105.811 47.152c-1.548-1.988-10.242-.957-14.184-.479-1.18.148-1.364-.883-.295-1.656 6.926-4.86 18.31-3.46 19.637-1.84 1.326 1.656-.369 13.031-6.853 18.48-.995.846-1.953.404-1.51-.7 1.473-3.645 4.752-11.854 3.205-13.805z" clip-rule="evenodd"/>
</svg>
