<svg viewBox="0 0 70 64" fill="none" xmlns="http://www.w3.org/2000/svg">
  <path d="M17.784 23.432c2.064 1.32 3.096 3.216 3.096 5.688 0 2.184-.78 3.96-2.34 5.328-1.56 1.368-3.492 2.052-5.796 2.052H2.16V11.3h9.864c2.256 0 4.14.672 5.652 2.016 1.536 1.32 2.304 3.048 2.304 5.184 0 2.016-.732 3.66-2.196 4.932Zm-5.76-6.732H7.92v4.464h4.104c.648 0 1.176-.204 1.584-.612.408-.432.612-.972.612-1.62 0-.648-.204-1.176-.612-1.584-.408-.432-.936-.648-1.584-.648Zm.72 14.4c.72 0 1.296-.216 1.728-.648.432-.456.648-1.044.648-1.764s-.216-1.296-.648-1.728c-.432-.456-1.008-.684-1.728-.684H7.92V31.1h4.824Zm13.054 5.4v-4.176l8.46-8.784c1.704-1.752 2.556-3.24 2.556-4.464 0-.792-.24-1.428-.72-1.908-.48-.504-1.14-.756-1.98-.756-1.68 0-2.916.912-3.708 2.736l-4.86-2.844c.768-1.8 1.92-3.168 3.456-4.104a9.504 9.504 0 0 1 5.04-1.404c2.352 0 4.356.732 6.012 2.196 1.68 1.44 2.52 3.384 2.52 5.832 0 2.664-1.308 5.304-3.924 7.92l-4.176 4.212h8.46V36.5H25.798Zm39.608-13.068c2.063 1.32 3.095 3.216 3.095 5.688 0 2.184-.78 3.96-2.34 5.328-1.56 1.368-3.492 2.052-5.796 2.052H49.781V11.3h9.864c2.256 0 4.14.672 5.652 2.016 1.537 1.32 2.305 3.048 2.305 5.184 0 2.016-.733 3.66-2.197 4.932Zm-5.76-6.732H55.54v4.464h4.105c.648 0 1.175-.204 1.584-.612.408-.432.612-.972.612-1.62 0-.648-.204-1.176-.612-1.584-.408-.432-.936-.648-1.584-.648Zm.72 14.4c.72 0 1.295-.216 1.727-.648.432-.456.648-1.044.648-1.764s-.215-1.296-.648-1.728c-.432-.456-1.008-.684-1.728-.684h-4.824V31.1h4.825ZM11.7 57.5H2.8v-1.26l5.04-5.08c1.44-1.44 2.16-2.673 2.16-3.7 0-.867-.273-1.553-.82-2.06-.533-.52-1.2-.78-2-.78-1.426 0-2.473.66-3.14 1.98l-1.18-.7c.427-.853 1.02-1.507 1.78-1.96.76-.453 1.607-.68 2.54-.68 1.12 0 2.1.38 2.94 1.14.854.733 1.28 1.753 1.28 3.06 0 .773-.213 1.533-.64 2.28-.426.733-1.08 1.54-1.96 2.42l-4 3.98h6.9v1.36Zm17.813-1.72c-.92 1.306-2.22 1.96-3.9 1.96-1.666 0-2.973-.654-3.92-1.96-.92-1.32-1.38-3.08-1.38-5.28 0-2.214.46-3.967 1.38-5.26.947-1.32 2.254-1.98 3.92-1.98 1.68 0 2.98.66 3.9 1.98.934 1.293 1.4 3.046 1.4 5.26 0 2.213-.466 3.973-1.4 5.28Zm-6.78-.94c.707 1.026 1.667 1.54 2.88 1.54 1.227 0 2.18-.514 2.86-1.54.694-1.014 1.04-2.46 1.04-4.34s-.346-3.327-1.04-4.34c-.68-1.027-1.633-1.54-2.86-1.54-1.213 0-2.173.513-2.88 1.54-.68 1.027-1.02 2.473-1.02 4.34s.34 3.313 1.02 4.34Zm25.683 2.66h-8.9v-1.26l5.04-5.08c1.44-1.44 2.16-2.673 2.16-3.7 0-.867-.274-1.553-.82-2.06-.534-.52-1.2-.78-2-.78-1.427 0-2.474.66-3.14 1.98l-1.18-.7c.426-.853 1.02-1.507 1.78-1.96.76-.453 1.606-.68 2.54-.68 1.12 0 2.1.38 2.94 1.14.853.733 1.28 1.753 1.28 3.06 0 .773-.214 1.533-.64 2.28-.427.733-1.08 1.54-1.96 2.42l-4 3.98h6.9v1.36Zm17.812-1.72c-.92 1.306-2.22 1.96-3.9 1.96-1.667 0-2.973-.654-3.92-1.96-.92-1.32-1.38-3.08-1.38-5.28 0-2.214.46-3.967 1.38-5.26.947-1.32 2.253-1.98 3.92-1.98 1.68 0 2.98.66 3.9 1.98.934 1.293 1.4 3.046 1.4 5.26 0 2.213-.466 3.973-1.4 5.28Zm-6.78-.94c.707 1.026 1.667 1.54 2.88 1.54 1.227 0 2.18-.514 2.86-1.54.694-1.014 1.04-2.46 1.04-4.34s-.346-3.327-1.04-4.34c-.68-1.027-1.633-1.54-2.86-1.54-1.213 0-2.173.513-2.88 1.54-.68 1.027-1.02 2.473-1.02 4.34s.34 3.313 1.02 4.34Z" fill="#fff"/>
</svg>
