<svg viewBox="0 0 132 64" fill="none" xmlns="http://www.w3.org/2000/svg">
  <path d="M25.506 39.512a10.213 10.213 0 0 1-6.884 2.542c-5.835 0-10.12-4.267-10.12-10.123 0-5.856 4.149-9.942 10.12-9.942 2.538-.034 5.001.853 6.93 2.497l1.275 1.09 5.653-5.63-1.413-1.317A18.337 18.337 0 0 0 18.622 14C8.138 13.999.525 21.535.525 31.885.525 42.236 8.32 50 18.622 50a18.34 18.34 0 0 0 12.536-4.721l1.367-1.271-5.743-5.63-1.276 1.135Z" fill="#fff"/>
  <path d="M18.348 38.015c3.348 0 6.063-2.703 6.063-6.038 0-3.334-2.715-6.038-6.063-6.038s-6.063 2.704-6.063 6.038c0 3.335 2.715 6.038 6.063 6.038ZM51.02 11.005l1.908 5.87h6.171l-4.993 3.627 1.907 5.87-4.993-3.628-4.993 3.628 1.907-5.87-4.993-3.627h6.172l1.907-5.87ZM69.01 11.005l1.908 5.87h6.172l-4.993 3.627 1.907 5.87-4.993-3.628-4.993 3.628 1.907-5.87-4.993-3.627h6.171l1.908-5.87ZM86.999 11.005l1.907 5.87h6.172l-4.993 3.627 1.907 5.87L87 22.744l-4.993 3.628 1.907-5.87-4.993-3.627h6.172l1.907-5.87ZM104.99 11.005l1.907 5.87h6.172l-4.993 3.627 1.907 5.87-4.993-3.628-4.994 3.628 1.908-5.87-4.994-3.627h6.172l1.908-5.87ZM122.979 11.005l1.907 5.87h6.172l-4.993 3.627 1.907 5.87-4.993-3.628-4.993 3.628 1.907-5.87-4.993-3.627h6.172l1.907-5.87ZM44.462 46.01h.12c.677 0 1.227-.095 1.65-.285.424-.19.75-.447.978-.769.228-.321.385-.683.47-1.085.084-.406.127-.823.127-1.25v-1.416c0-.419-.049-.791-.146-1.117a2.418 2.418 0 0 0-.394-.819 1.746 1.746 0 0 0-.565-.501 1.395 1.395 0 0 0-.673-.172c-.27 0-.514.055-.73.165a1.533 1.533 0 0 0-.54.45 2.151 2.151 0 0 0-.33.686 3.063 3.063 0 0 0-.114.857c0 .275.034.542.102.8.068.258.171.491.311.698.14.208.313.373.52.495.212.119.46.178.743.178.263 0 .508-.05.737-.152a2.13 2.13 0 0 0 1.047-1.041c.11-.229.173-.468.19-.717h.559c0 .35-.07.698-.21 1.04a3.19 3.19 0 0 1-.57.927c-.246.28-.534.504-.864.673a2.38 2.38 0 0 1-1.08.248c-.456 0-.852-.09-1.186-.267a2.397 2.397 0 0 1-.825-.71 3.25 3.25 0 0 1-.477-.991 4.184 4.184 0 0 1-.152-1.117c0-.44.062-.853.184-1.238.123-.385.305-.724.546-1.016a2.49 2.49 0 0 1 .895-.691c.36-.165.775-.248 1.244-.248.53 0 .98.106 1.352.317.373.212.675.495.908.85.237.356.41.756.52 1.2.11.445.166.902.166 1.372v.425c0 .478-.032.965-.096 1.46-.059.49-.175.96-.349 1.41-.169.448-.416.85-.742 1.205-.326.352-.752.63-1.276.838-.52.203-1.164.305-1.93.305h-.12v-.997Zm13.44-4.373v1.409c0 .757-.067 1.396-.202 1.917-.136.52-.33.94-.584 1.257-.254.317-.561.548-.92.692-.356.14-.758.21-1.207.21a3.46 3.46 0 0 1-.984-.134c-.3-.09-.571-.23-.812-.425a2.58 2.58 0 0 1-.61-.775 4.156 4.156 0 0 1-.387-1.155 8.323 8.323 0 0 1-.133-1.587v-1.41c0-.757.068-1.392.203-1.904.14-.512.337-.922.59-1.231a2.15 2.15 0 0 1 .914-.673c.36-.135.762-.203 1.206-.203.36 0 .69.044.99.133.305.085.576.222.813.413.237.186.438.436.603.749.17.309.299.688.387 1.136.09.449.134.976.134 1.58Zm-1.18 1.6V41.44c0-.415-.025-.779-.076-1.092a3.429 3.429 0 0 0-.21-.812 1.607 1.607 0 0 0-.355-.546 1.257 1.257 0 0 0-.489-.305 1.756 1.756 0 0 0-.615-.102c-.28 0-.527.053-.743.16a1.335 1.335 0 0 0-.546.488c-.144.224-.254.518-.33.882a6.591 6.591 0 0 0-.114 1.327v1.796c0 .415.023.781.07 1.099.05.317.124.592.222.825.097.228.215.417.355.565.14.148.3.258.483.33.186.067.39.101.615.101.288 0 .54-.055.756-.165.215-.11.395-.281.54-.514.147-.237.257-.54.33-.908.071-.372.107-.816.107-1.333Zm9.21-5.485h3.06c.694 0 1.28.106 1.759.317.482.212.848.525 1.098.94.254.41.38.916.38 1.517 0 .423-.086.81-.26 1.161-.169.348-.414.644-.736.89a3.25 3.25 0 0 1-1.142.539l-.343.133h-2.876l-.013-.997h2.171c.44 0 .807-.076 1.099-.228.292-.157.512-.366.66-.629.148-.262.222-.552.222-.87 0-.355-.07-.666-.21-.932a1.399 1.399 0 0 0-.66-.616c-.296-.148-.679-.222-1.149-.222h-1.834v8.24h-1.225v-9.243Zm5.403 9.242-2.247-4.19 1.276-.006 2.278 4.12v.076h-1.307Zm9.975-.996v.996h-4.894v-.996h4.894Zm-4.646-8.246v9.242h-1.225v-9.242h1.225Zm3.999 3.974v.996h-4.247v-.996h4.247Zm.584-3.974v1.003h-4.83v-1.003h4.83Zm6.059 7.84 2.723-7.84h1.326l-3.421 9.242h-.946l.318-1.403Zm-2.546-7.84 2.698 7.84.336 1.402h-.945l-3.416-9.242h1.327Zm10.648 0v9.242h-1.225v-9.242h1.225Zm9.595 8.245v.997h-4.894v-.996h4.894Zm-4.647-8.245v9.242h-1.224v-9.242h1.224Zm3.999 3.974v.996h-4.246v-.996h4.246Zm.584-3.974v1.003h-4.83v-1.003h4.83Zm5.507 6.45 1.835-6.45h.888l-.514 2.507-1.974 6.735h-.882l.647-2.793Zm-1.898-6.45 1.46 6.322.438 2.92h-.876l-2.241-9.242h1.219Zm6.995 6.316 1.428-6.316h1.226l-2.235 9.242h-.876l.457-2.926Zm-2.24-6.316 1.783 6.45.648 2.792h-.883l-1.904-6.735-.52-2.507h.876Zm12.673 6.906a1.49 1.49 0 0 0-.102-.571 1.085 1.085 0 0 0-.343-.457 2.679 2.679 0 0 0-.672-.387 9.424 9.424 0 0 0-1.08-.375 9.908 9.908 0 0 1-1.237-.45 4.3 4.3 0 0 1-.946-.578 2.263 2.263 0 0 1-.603-.743 2.11 2.11 0 0 1-.21-.958c0-.36.074-.692.223-.997a2.33 2.33 0 0 1 .634-.793c.28-.229.612-.407.997-.534.385-.127.814-.19 1.288-.19.694 0 1.283.133 1.765.4.487.262.857.607 1.111 1.035.254.423.381.875.381 1.358h-1.219c0-.347-.074-.654-.222-.92a1.532 1.532 0 0 0-.673-.635c-.3-.157-.681-.235-1.143-.235-.435 0-.795.066-1.079.197a1.423 1.423 0 0 0-.634.533c-.136.224-.204.48-.204.768 0 .195.041.372.121.533.085.157.214.303.387.438.178.136.402.26.673.375.275.114.603.224.984.33.525.148.978.313 1.358.495.381.182.694.387.94.616.25.224.434.48.552.768.123.283.184.605.184.965 0 .376-.076.717-.228 1.021a2.236 2.236 0 0 1-.654.781 3.161 3.161 0 0 1-1.022.502 4.736 4.736 0 0 1-1.32.171 4.58 4.58 0 0 1-1.264-.178 3.76 3.76 0 0 1-1.123-.533 2.795 2.795 0 0 1-.806-.876 2.43 2.43 0 0 1-.299-1.219h1.219c0 .318.061.59.184.82.123.224.29.41.502.558.215.148.459.258.73.33.275.068.56.101.857.101.427 0 .789-.059 1.085-.177.296-.119.521-.288.673-.508.156-.22.235-.48.235-.78Z" fill="#fff"/>
</svg>
