<svg xmlns="http://www.w3.org/2000/svg" fill="none" viewBox="0 0 150 32">
    <path fill="#fff" d="M15.202 15.205H0V.003h15.202v15.202Zm16.786 0H16.786V.003h15.202v15.202ZM15.202 31.996H0V16.794h15.202v15.202Zm16.786 0H16.786V16.794h15.202v15.202ZM150 15.018v-2.635h-3.273V8.286l-.11.034-3.074.94-.061.019v3.104h-4.852v-1.73c0-.805.18-1.42.535-1.832.353-.406.857-.612 1.5-.612.462 0 .94.108 1.422.323l.121.054V5.811l-.057-.021c-.449-.162-1.06-.243-1.818-.243-.954 0-1.822.208-2.578.62-.757.412-1.352 1-1.77 1.748-.415.748-.626 1.611-.626 2.567v1.9h-2.279v2.636h2.279v11.103h3.271V15.018h4.852v7.056c0 2.906 1.371 4.378 4.074 4.378a6.74 6.74 0 0 0 1.389-.153c.486-.105.817-.21 1.012-.321l.043-.026v-2.66l-.133.088a2.3 2.3 0 0 1-.658.287c-.26.073-.478.11-.646.11-.633 0-1.102-.17-1.393-.507-.294-.34-.443-.934-.443-1.765v-6.487H150Zm-24.226 8.76c-1.187 0-2.123-.394-2.783-1.17-.664-.78-1-1.89-1-3.303 0-1.456.336-2.596 1-3.39.66-.788 1.588-1.188 2.757-1.188 1.134 0 2.037.382 2.684 1.136.65.758.98 1.89.98 3.363 0 1.492-.31 2.638-.922 3.404-.608.761-1.521 1.148-2.716 1.148Zm.146-11.726c-2.266 0-4.065.664-5.348 1.973-1.282 1.31-1.932 3.121-1.932 5.386 0 2.15.634 3.881 1.886 5.142 1.252 1.26 2.955 1.9 5.062 1.9 2.196 0 3.96-.674 5.242-2.001 1.283-1.326 1.932-3.12 1.932-5.333 0-2.184-.609-3.927-1.812-5.18-1.204-1.252-2.896-1.887-5.03-1.887Zm-12.555 0c-1.541 0-2.815.394-3.789 1.171-.98.782-1.477 1.807-1.477 3.048 0 .645.108 1.218.319 1.704.212.487.541.917.977 1.277.434.357 1.102.732 1.989 1.113.745.306 1.301.565 1.654.77.345.2.589.402.728.598.134.192.202.454.202.779 0 .922-.691 1.372-2.113 1.372-.528 0-1.13-.11-1.789-.328a6.718 6.718 0 0 1-1.831-.928l-.136-.098v3.15l.05.023c.463.214 1.046.394 1.734.536a9.313 9.313 0 0 0 1.852.214c1.673 0 3.019-.396 4.002-1.178.989-.787 1.49-1.837 1.49-3.12 0-.927-.27-1.72-.802-2.361-.528-.635-1.444-1.218-2.723-1.734-1.018-.409-1.671-.748-1.94-1.009-.26-.251-.391-.607-.391-1.058 0-.4.162-.72.496-.979.337-.26.805-.393 1.392-.393.545 0 1.103.086 1.658.255a5.32 5.32 0 0 1 1.447.671l.134.092V12.65l-.052-.022c-.374-.161-.869-.299-1.469-.41a8.976 8.976 0 0 0-1.612-.167ZM99.571 23.778c-1.187 0-2.124-.394-2.784-1.17-.663-.78-1-1.89-1-3.303 0-1.456.337-2.596 1.001-3.39.66-.788 1.587-1.188 2.757-1.188 1.133 0 2.036.382 2.683 1.136.651.758.98 1.89.98 3.363 0 1.492-.31 2.638-.922 3.404-.607.761-1.52 1.148-2.715 1.148Zm.146-11.726c-2.266 0-4.066.664-5.348 1.973-1.282 1.31-1.933 3.121-1.933 5.386 0 2.152.635 3.881 1.887 5.142 1.252 1.26 2.955 1.9 5.062 1.9 2.196 0 3.96-.674 5.242-2.001 1.282-1.326 1.932-3.12 1.932-5.333 0-2.184-.61-3.927-1.813-5.18-1.203-1.252-2.896-1.887-5.03-1.887Zm-12.247 2.71v-2.38h-3.23v13.739h3.231v-7.028c0-1.195.271-2.176.806-2.918.528-.732 1.231-1.104 2.09-1.104.291 0 .618.048.972.143.35.095.604.197.753.305l.136.098V12.36l-.052-.022c-.301-.128-.727-.192-1.266-.192a3.31 3.31 0 0 0-2.161.774c-.546.452-.941 1.071-1.243 1.843h-.035Zm-9.018-2.71c-1.483 0-2.805.318-3.93.945a6.364 6.364 0 0 0-2.592 2.665c-.59 1.137-.89 2.466-.89 3.948 0 1.298.29 2.49.865 3.539a6.08 6.08 0 0 0 2.418 2.445c1.029.57 2.217.859 3.533.859 1.536 0 2.847-.307 3.898-.913l.043-.024v-2.96l-.136.098a6.076 6.076 0 0 1-1.581.823c-.571.2-1.092.3-1.549.3-1.268 0-2.285-.396-3.024-1.178-.74-.784-1.116-1.884-1.116-3.268 0-1.392.391-2.52 1.163-3.353.77-.83 1.789-1.25 3.03-1.25 1.063 0 2.098.359 3.077 1.07l.136.098v-3.12l-.044-.024c-.368-.207-.871-.377-1.495-.506a8.928 8.928 0 0 0-1.806-.194Zm-9.638.331h-3.231v13.738h3.231V12.383Zm-1.583-5.852c-.531 0-.995.18-1.377.54-.382.36-.576.812-.576 1.347 0 .526.191.97.57 1.321.377.35.843.526 1.383.526a2 2 0 0 0 1.39-.525c.383-.351.578-.796.578-1.322 0-.516-.19-.964-.563-1.333-.372-.368-.845-.554-1.405-.554Zm-8.063 4.839v14.75h3.298V6.951h-4.564L52.1 21.19 46.47 6.95h-4.75v19.17h3.098V11.368h.107l5.945 14.753h2.34l5.852-14.751h.106Z"/>
</svg>
